RBDS09runT45_grf
version=1
nRows=12
nColumns=19
inDegrees=no
endheader
time	ground_force_r_vx	ground_force_r_vy	ground_force_r_vz	ground_force_r_px	ground_force_r_py	ground_force_r_pz	ground_force_r_mx	ground_force_r_my	ground_force_r_mz	ground_force_l_vx	ground_force_l_vy	ground_force_l_vz	ground_force_l_px	ground_force_l_py	ground_force_l_pz	ground_force_l_mx	ground_force_l_my	ground_force_l_mz
     14.99900000	   -236.21968649	   1311.57051409	     19.01891071	      2.49887186	      0.00000000	      1.07047042	     -0.00000000	      2.52298937	      0.00000000	      0.00000000	      0.00000000	      0.00000000	      0.00000000	      0.00000000	      0.00000000	      0.00000000	      0.00000000	      0.00000000
     15.00000000	   -239.08802655	   1335.16654264	     18.57037830	      2.49731993	      0.00000000	      1.07049102	     -0.00000000	      2.71708366	      0.00000000	      0.00000000	      0.00000000	      0.00000000	      0.00000000	      0.00000000	      0.00000000	      0.00000000	      0.00000000	      0.00000000
     15.00100000	   -241.13067919	   1355.07155755	     17.74558343	      2.49554354	      0.00000000	      1.07057736	     -0.00000000	      2.80353114	      0.00000000	      0.00000000	      0.00000000	      0.00000000	      0.00000000	      0.00000000	      0.00000000	      0.00000000	      0.00000000	      0.00000000
     15.00200000	   -243.17333183	   1374.97657245	     16.92078856	      2.49376715	      0.00000000	      1.07066371	     -0.00000000	      2.88997862	      0.00000000	      0.00000000	      0.00000000	      0.00000000	      0.00000000	      0.00000000	      0.00000000	      0.00000000	      0.00000000	      0.00000000
     15.00300000	   -245.21598447	   1394.88158735	     16.09599370	      2.49199076	      0.00000000	      1.07075005	     -0.00000000	      2.97642610	      0.00000000	      0.00000000	      0.00000000	      0.00000000	      0.00000000	      0.00000000	      0.00000000	      0.00000000	      0.00000000	      0.00000000
     15.00400000	   -246.69591504	   1412.44479850	     15.03347342	      2.49006255	      0.00000000	      1.07087795	     -0.00000000	      2.99201448	      0.00000000	      0.00000000	      0.00000000	      0.00000000	      0.00000000	      0.00000000	      0.00000000	      0.00000000	      0.00000000	      0.00000000
     15.00500000	   -247.89448456	   1428.83710776	     13.85209045	      2.48805842	      0.00000000	      1.07102662	     -0.00000000	      2.97217331	      0.00000000	      0.00000000	      0.00000000	      0.00000000	      0.00000000	      0.00000000	      0.00000000	      0.00000000	      0.00000000	      0.00000000
     15.00600000	   -249.09305408	   1445.22941703	     12.67070747	      2.48605430	      0.00000000	      1.07117529	     -0.00000000	      2.95233215	      0.00000000	      0.00000000	      0.00000000	      0.00000000	      0.00000000	      0.00000000	      0.00000000	      0.00000000	      0.00000000	      0.00000000
     15.00700000	   -250.00781403	   1460.53256636	     11.38194264	      2.48397461	      0.00000000	      1.07134299	     -0.00000000	      2.89878822	      0.00000000	      0.00000000	      0.00000000	      0.00000000	      0.00000000	      0.00000000	      0.00000000	      0.00000000	      0.00000000	      0.00000000
     15.00800000	   -250.35495484	   1473.65739580	      9.87841409	      2.48174377	      0.00000000	      1.07154875	     -0.00000000	      2.77783879	      0.00000000	      0.00000000	      0.00000000	      0.00000000	      0.00000000	      0.00000000	      0.00000000	      0.00000000	      0.00000000	      0.00000000
     15.00900000	   -250.70209565	   1486.78222524	      8.37488554	      2.47951294	      0.00000000	      1.07175451	     -0.00000000	      2.65688935	      0.00000000	      0.00000000	      0.00000000	      0.00000000	      0.00000000	      0.00000000	      0.00000000	      0.00000000	      0.00000000	      0.00000000
     15.01000000	   -251.04923645	   1499.90705468	      6.87135698	      2.47728210	      0.00000000	      1.07196027	     -0.00000000	      2.53593992	      0.00000000	      0.00000000	      0.00000000	      0.00000000	      0.00000000	      0.00000000	      0.00000000	      0.00000000	      0.00000000	      0.00000000
